<svg width="891" height="404" viewBox="0 0 891 404" fill="none" xmlns="http://www.w3.org/2000/svg">
<rect width="891" height="404" rx="15" fill="#0D1117"/>
<path d="M185.72 228V178.08H216.28V183.04H191V199.44H211.88V204.56H191V223.04H216.04V228H185.72ZM265 178.16H270.44L291.4 215.12V178.16H297.48V178.72C297.16 179.04 296.947 179.387 296.84 179.76C296.787 180.133 296.76 180.773 296.76 181.68V228H292.36L270.36 188.8V228H265V178.16ZM359.96 228.32L343 178.08H348.84L361.64 216.4L373.72 178.16H379.24L362.52 228.32H359.96ZM427.48 228V223.28H437.32V182.88H428.04V178.16H452.76V182.88H442.92V223.36H453.24V228H427.48ZM505.48 228V178.16H520.2C526.067 178.16 530.28 179.467 532.84 182.08C535.453 184.693 536.76 188.133 536.76 192.4C536.76 194.267 536.333 196.133 535.48 198C534.68 199.867 533.507 201.493 531.96 202.88C530.467 204.267 528.68 205.227 526.6 205.76L538.12 228H531.88L520.84 206H511.16V228H505.48ZM511.16 201.04H520.84C524.413 201.04 527 200.267 528.6 198.72C530.2 197.12 531 195.013 531 192.4C531 189.893 530.2 187.787 528.6 186.08C527 184.32 524.413 183.44 520.84 183.44H511.16V201.04ZM601 228.88C595.293 228.88 590.893 226.667 587.8 222.24C584.707 217.813 583.16 211.52 583.16 203.36C583.16 195.467 584.707 189.253 587.8 184.72C590.893 180.133 595.293 177.84 601 177.84C606.707 177.84 611.107 180.133 614.2 184.72C617.293 189.253 618.84 195.467 618.84 203.36C618.84 211.52 617.293 217.813 614.2 222.24C611.107 226.667 606.707 228.88 601 228.88ZM601 224C604.787 224 607.747 222.213 609.88 218.64C612.013 215.067 613.08 209.973 613.08 203.36C613.08 197.067 612.013 192.053 609.88 188.32C607.747 184.587 604.787 182.72 601 182.72C597.213 182.72 594.253 184.587 592.12 188.32C589.987 192.053 588.92 197.067 588.92 203.36C588.92 209.973 589.987 215.067 592.12 218.64C594.253 222.213 597.213 224 601 224ZM665 178.16H670.44L691.4 215.12V178.16H697.48V178.72C697.16 179.04 696.947 179.387 696.84 179.76C696.787 180.133 696.76 180.773 696.76 181.68V228H692.36L670.36 188.8V228H665V178.16Z" fill="white"/>
</svg>
