<svg width="2430" height="381" viewBox="0 0 2430 381" fill="none" xmlns="http://www.w3.org/2000/svg">
<path d="M722 1.00033L890.285 379L916.785 378.517L1083 1H1053.62L903.286 339.16L755.568 1L722 1.00033Z" fill="black"/>
<path d="M1838.5 368C1937.08 368 2017 288.531 2017 190.5C2017 92.4695 1937.08 13 1838.5 13C1739.92 13 1660 92.4695 1660 190.5C1660 288.531 1739.92 368 1838.5 368Z" stroke="black" stroke-width="25"/>
<path d="M1298 377V227.29L1462.13 224.555C1587.42 222.467 1585.24 27.4461 1455.17 27.377L1298 27.2937V1L1460.02 1.52572C1519.71 1.71962 1579.03 48.2233 1581.59 115.873C1583.94 177.892 1560.38 221.522 1498.09 243.259L1585 377L1556.4 376.999L1473.59 253.397H1326.44L1326.9 376.999L1298 377Z" fill="#080908"/>
<path d="M0 1V30.2332H245V1H0Z" fill="black"/>
<path d="M0 174.383V203.617H245V174.383H0Z" fill="black"/>
<path d="M0 348.775V377H245V348.775H0Z" fill="black"/>
<path d="M2124 1V377H2154.29V53.7322L2406.41 377H2430V1H2399.19V325.253L2154.29 1H2124Z" fill="black"/>
<path d="M354 1V377H384.287V53.7322L636.412 377H660V1H629.191V325.253L384.287 1H354Z" fill="black"/>
<path d="M1139 1V376H1172V1H1139Z" fill="black"/>
</svg>
